<?xml version="1.0" encoding="UTF-8"?>
<svg xmlns="http://www.w3.org/2000/svg" xmlns:xlink="http://www.w3.org/1999/xlink" width="2764.5pt" height="972.94pt" viewBox="0 0 2764.5 972.94" version="1.1">
<defs>
<clipPath id="clip1">
  <path d="M 851 0 L 1229 0 L 1229 972.941406 L 851 972.941406 Z M 851 0 "/>
</clipPath>
<clipPath id="clip2">
  <path d="M 2488 78 L 2764.5 78 L 2764.5 706 L 2488 706 Z M 2488 78 "/>
</clipPath>
</defs>
<g id="surface1">
<path style=" stroke:none;fill-rule:nonzero;fill:rgb(34.098816%,36.898804%,38.398743%);fill-opacity:1;" d="M 521.265625 434.554688 L 521.265625 613.167969 C 521.265625 658.460938 543.910156 681.105469 589.195313 681.105469 L 608.972656 681.105469 C 654.257813 681.105469 676.902344 658.460938 676.902344 613.167969 L 676.902344 525.355469 L 781.621094 525.355469 L 781.621094 608.863281 C 781.621094 723.523438 723.628906 781.621094 608.859375 781.621094 L 586.550781 781.621094 C 471.886719 781.621094 413.785156 723.632813 413.785156 622.339844 L 413.785156 186.238281 C 413.785156 58.105469 471.777344 0.113281 586.550781 0.113281 L 609.191406 0.113281 C 723.851563 0.113281 781.949219 58.214844 781.949219 172.871094 L 781.949219 434.554688 Z M 521.265625 330.941406 L 674.914063 330.941406 L 674.914063 168.566406 C 674.914063 123.277344 652.269531 100.632813 606.980469 100.632813 L 589.972656 100.632813 C 544.683594 100.632813 522.039063 123.277344 522.039063 168.566406 L 521.265625 330.941406 "/>
<g clip-path="url(#clip1)" clip-rule="nonzero">
<path style=" stroke:none;fill-rule:nonzero;fill:rgb(34.098816%,36.898804%,38.398743%);fill-opacity:1;" d="M 851.652344 8.617188 L 959.238281 8.617188 L 959.238281 58.214844 C 967.628906 49.105469 976.855469 40.945313 986.925781 33.742188 C 996.992188 26.539063 1007.691406 20.4375 1019.019531 15.4375 C 1030.351563 10.4375 1042.070313 6.648438 1054.171875 4.066406 C 1066.28125 1.484375 1078.53125 0.167969 1090.910156 0.113281 C 1182.921875 0.113281 1228.210938 60.976563 1228.210938 151.554688 L 1228.210938 630.074219 C 1228.210938 720.648438 1182.921875 781.511719 1090.910156 781.511719 C 1078.648438 781.515625 1066.511719 780.308594 1054.5 777.890625 C 1042.480469 775.476563 1030.820313 771.894531 1019.519531 767.152344 C 1008.210938 762.414063 997.484375 756.601563 987.34375 749.722656 C 977.195313 742.839844 967.828125 735.027344 959.242188 726.28125 L 959.238281 972.941406 L 851.652344 972.941406 Z M 959.238281 640.011719 C 965.996094 646.171875 973.246094 651.671875 980.992188 656.519531 C 988.738281 661.371094 996.859375 665.488281 1005.351563 668.875 C 1013.828125 672.261719 1022.558594 674.859375 1031.519531 676.675781 C 1040.46875 678.484375 1049.519531 679.484375 1058.660156 679.671875 C 1098.308594 679.671875 1120.960938 661.21875 1120.960938 617.367188 L 1120.960938 164.480469 C 1120.960938 120.296875 1098.308594 102.179688 1058.660156 102.179688 C 1049.519531 102.363281 1040.46875 103.359375 1031.519531 105.175781 C 1022.558594 106.988281 1013.828125 109.589844 1005.351563 112.972656 C 996.859375 116.359375 988.738281 120.476563 980.992188 125.324219 C 973.246094 130.175781 965.996094 135.679688 959.238281 141.832031 L 959.238281 640.011719 "/>
</g>
<path style=" stroke:none;fill-rule:nonzero;fill:rgb(34.098816%,36.898804%,38.398743%);fill-opacity:1;" d="M 1293.488281 506.90625 C 1293.488281 412.019531 1324.648438 374.355469 1406.71875 345.523438 L 1551.089844 295.925781 L 1551.089844 168.566406 C 1551.089844 123.277344 1528.449219 99.195313 1483.160156 99.195313 L 1465.589844 99.195313 C 1420.308594 99.195313 1397.660156 123.277344 1397.660156 168.566406 L 1397.660156 276.816406 L 1293.488281 276.816406 L 1293.488281 172.765625 C 1293.488281 58.105469 1351.488281 0.00390625 1466.25 0.00390625 L 1486.578125 0.00390625 C 1601.238281 0.00390625 1659.339844 58.105469 1659.339844 172.765625 L 1659.339844 773.007813 L 1551.75 773.007813 L 1551.75 724.847656 C 1543.269531 733.785156 1533.980469 741.777344 1523.871094 748.824219 C 1513.769531 755.871094 1503.050781 761.832031 1491.738281 766.703125 C 1480.421875 771.574219 1468.730469 775.257813 1456.660156 777.75 C 1444.601563 780.242188 1432.398438 781.496094 1420.078125 781.511719 C 1333.699219 781.511719 1294.050781 731.914063 1294.050781 646.972656 Z M 1551.199219 644.210938 L 1551.199219 392.140625 L 1453.550781 429.144531 C 1413.898438 444.71875 1401.191406 464.488281 1401.191406 508.453125 L 1401.191406 624.769531 C 1401.191406 661.550781 1419.640625 680 1453.550781 680 C 1487.460938 680 1515.738281 668.292969 1551.199219 644.210938 "/>
<path style=" stroke:none;fill-rule:nonzero;fill:rgb(34.098816%,36.898804%,38.398743%);fill-opacity:1;" d="M 2093.898438 773.117188 L 1986.308594 773.117188 L 1986.308594 157.300781 C 1986.308594 119.078125 1967.859375 102.066406 1935.390625 102.066406 C 1905.671875 102.066406 1874.519531 113.113281 1835.96875 140.285156 L 1835.96875 773.117188 L 1728.710938 773.117188 L 1728.710938 8.617188 L 1836.300781 8.617188 L 1836.300781 58.214844 C 1867.449219 28.503906 1908.539063 0.113281 1967.96875 0.113281 C 2023.199219 0.113281 2059.980469 22.757813 2079.75 62.410156 C 2117.96875 29.824219 2163.261719 0.113281 2225.558594 0.113281 C 2309.070313 0.113281 2351.601563 51.035156 2351.601563 134.652344 L 2351.601563 773.117188 L 2243.460938 773.117188 L 2243.460938 157.300781 C 2243.460938 119.078125 2225.011719 102.066406 2192.539063 102.066406 C 2162.820313 102.066406 2131.671875 113.113281 2093.121094 140.285156 L 2093.898438 773.117188 "/>
<path style=" stroke:none;fill-rule:nonzero;fill:rgb(0%,72.499084%,90.19928%);fill-opacity:1;" d="M 276.152344 78.984375 L 276.152344 219.597656 L 95.105469 392.140625 L 276.152344 561.585938 L 276.152344 705.183594 L 0 445.382813 L 0 341.988281 L 276.152344 78.984375 "/>
<g clip-path="url(#clip2)" clip-rule="nonzero">
<path style=" stroke:none;fill-rule:nonzero;fill:rgb(0%,72.499084%,90.19928%);fill-opacity:1;" d="M 2764.5 341.988281 L 2764.5 445.382813 L 2488.351563 705.183594 L 2488.351563 561.585938 L 2669.390625 392.140625 L 2488.351563 219.597656 L 2488.351563 78.984375 L 2764.5 341.988281 "/>
</g>
</g>
</svg>
